<svg xmlns="http://www.w3.org/2000/svg" width="134.648" height="109.494" viewBox="0 0 134.648 109.494">
  <g id="Group_426" data-name="Group 426" transform="translate(-354.837 -6533.178)">
    <path id="Subtraction_1" data-name="Subtraction 1" d="M56.019,109.494A56.314,56.314,0,0,1,16.408,93.459a53.872,53.872,0,0,1,0-77.424A56.315,56.315,0,0,1,56.019,0a57.057,57.057,0,0,1,18.7,3.124,56.194,56.194,0,0,1,16.022,8.655,55.4,55.4,0,0,1,12.248,13.114,53.741,53.741,0,0,1,7.377,16.5L134.648,54.78l-24.4,13.769C103.839,92.656,81.539,109.494,56.019,109.494Zm0-97.051c-23.868,0-43.286,18.977-43.286,42.3s19.418,42.3,43.286,42.3,43.289-18.978,43.289-42.3S79.889,12.443,56.019,12.443Z" transform="translate(354.837 6533.178)" fill="#dfdede"/>
    <path id="Path_1382" data-name="Path 1382" d="M22.127,42.253A20.127,20.127,0,1,1,42.253,22.127,20.126,20.126,0,0,1,22.127,42.253Zm0-4.025a16.1,16.1,0,1,0-11.385-4.716,16.1,16.1,0,0,0,11.385,4.716ZM12.063,21.12l18.114-7.044L23.133,32.194l-3.019-8.055Z" transform="translate(388.874 6565.798)" fill="#130e11"/>
  </g>
</svg>
